<svg id="Layer_1" data-name="Layer 1" xmlns="http://www.w3.org/2000/svg" viewBox="0 0 187.42 187.41"><defs><style>.cls-1{font-size:12px;fill:#1d1d1b;font-family:MyriadPro-Regular, Myriad Pro;}</style></defs><text class="cls-1" transform="translate(76.98 11.68) rotate(-10.6)"> </text><text class="cls-1" transform="matrix(0.99, -0.12, 0.12, 0.99, 79.52, 11.12)">D</text><text class="cls-1" transform="translate(87.32 10.23) rotate(-2.99)">r</text><text class="cls-1" transform="matrix(1, 0.02, -0.02, 1, 91, 9.96)">o</text><text class="cls-1" transform="matrix(1, 0.08, -0.08, 1, 97.45, 10.03)">p</text><text class="cls-1" transform="translate(104.13 10.64) rotate(7.94)"> </text><text class="cls-1" transform="translate(106.21 10.89) rotate(10.55)">T</text><text class="cls-1" transform="translate(111.12 11.76) rotate(14.21)">o</text><text class="cls-1" transform="translate(117.42 13.41) rotate(17.3)"> </text><text class="cls-1" transform="translate(119.92 14.13) rotate(20.51)">Z</text><text class="cls-1" transform="matrix(0.91, 0.42, -0.42, 0.91, 125.86, 16.35)">e</text><text class="cls-1" transform="translate(131.2 18.83) rotate(27.99)">r</text><text class="cls-1" transform="matrix(0.85, 0.52, -0.52, 0.85, 134.49, 20.52)">o</text><text class="cls-1" transform="matrix(0.82, 0.57, -0.57, 0.82, 140, 23.96)"> </text><text class="cls-1" transform="matrix(0.79, 0.62, -0.62, 0.79, 142.19, 25.36)">D</text><text class="cls-1" transform="translate(148.32 30.25) rotate(42.07)">r</text><text class="cls-1" transform="matrix(0.7, 0.71, -0.71, 0.7, 151.09, 32.69)">o</text><text class="cls-1" transform="matrix(0.64, 0.77, -0.77, 0.64, 155.61, 37.27)">p</text><text class="cls-1" transform="translate(159.9 42.46) rotate(53.08)"> </text><text class="cls-1" transform="matrix(0.56, 0.83, -0.83, 0.56, 161.2, 44.11)">T</text><text class="cls-1" transform="matrix(0.51, 0.86, -0.86, 0.51, 164.04, 48.2)">o</text><text class="cls-1" transform="translate(167.31 53.8) rotate(62.36)"> </text><text class="cls-1" transform="matrix(0.41, 0.91, -0.91, 0.41, 168.57, 56.09)">Z</text><text class="cls-1" transform="matrix(0.35, 0.94, -0.94, 0.35, 171.19, 61.86)">e</text><text class="cls-1" transform="translate(173.21 67.39) rotate(73.06)">r</text><text class="cls-1" transform="translate(174.33 70.93) rotate(76.53)">o</text><text class="cls-1" transform="translate(175.79 77.24) rotate(79.6)"> </text><text class="cls-1" transform="translate(176.35 79.79) rotate(83.25)">D</text><text class="cls-1" transform="translate(177.2 87.6) rotate(87.21)">r</text><text class="cls-1" transform="translate(177.45 91.25) rotate(90.93)">o</text><text class="cls-1" transform="translate(177.37 97.69) rotate(95.01)">p</text><text class="cls-1" transform="matrix(-0.14, 0.99, -0.99, -0.14, 176.73, 104.4)"> </text><text class="cls-1" transform="translate(176.48 106.48) rotate(100.76)">T</text><text class="cls-1" transform="matrix(-0.25, 0.97, -0.97, -0.25, 175.59, 111.39)">o</text><text class="cls-1" transform="translate(173.93 117.64) rotate(107.48)"> </text><text class="cls-1" transform="translate(173.19 120.17) rotate(110.71)">Z</text><text class="cls-1" transform="matrix(-0.42, 0.91, -0.91, -0.42, 170.95, 126.1)">e</text><text class="cls-1" transform="translate(168.45 131.43) rotate(118.19)">r</text><text class="cls-1" transform="translate(166.75 134.71) rotate(121.63)">o</text><text class="cls-1" transform="translate(163.3 140.21) rotate(124.69)"> </text><text class="cls-1" transform="matrix(-0.62, 0.78, -0.78, -0.62, 161.89, 142.4)">D</text><text class="cls-1" transform="translate(156.98 148.51) rotate(132.27)">r</text><text class="cls-1" transform="translate(154.53 151.27) rotate(135.68)">o</text><text class="cls-1" transform="translate(149.93 155.78) rotate(140.15)">p</text><text class="cls-1" transform="translate(144.73 160.05) rotate(143.27)"> </text><text class="cls-1" transform="matrix(-0.83, 0.56, -0.56, -0.83, 143.08, 161.34)">T</text><text class="cls-1" transform="translate(138.97 164.17) rotate(149.49)">o</text><text class="cls-1" transform="matrix(-0.89, 0.46, -0.46, -0.89, 133.37, 167.42)"> </text><text class="cls-1" transform="matrix(-0.91, 0.41, -0.41, -0.91, 131.07, 168.67)">Z</text><text class="cls-1" transform="translate(125.28 171.28) rotate(159.91)">e</text><text class="cls-1" transform="translate(119.74 173.27) rotate(163.26)">r</text><text class="cls-1" transform="matrix(-0.97, 0.23, -0.23, -0.97, 116.2, 174.39)">o</text><text class="cls-1" transform="matrix(-0.98, 0.18, -0.18, -0.98, 109.9, 175.82)"> </text><text class="cls-1" transform="translate(107.36 176.37) rotate(173.43)">D</text><text class="cls-1" transform="translate(99.55 177.2) rotate(177.39)">r</text><text class="cls-1" transform="translate(95.86 177.42) rotate(-179.07)">o</text><text class="cls-1" transform="translate(89.42 177.34) rotate(-174.79)">p</text><text class="cls-1" transform="translate(82.74 176.67) rotate(-171.66)"> </text><text class="cls-1" transform="translate(80.64 176.41) rotate(-169.04)">T</text><text class="cls-1" transform="matrix(-0.97, -0.25, 0.25, -0.97, 75.74, 175.51)">o</text><text class="cls-1" transform="translate(69.49 173.83) rotate(-162.32)"> </text><text class="cls-1" transform="translate(66.97 173.08) rotate(-159.1)">Z</text><text class="cls-1" transform="translate(61.05 170.82) rotate(-154.95)">e</text><text class="cls-1" transform="matrix(-0.88, -0.48, 0.48, -0.88, 55.72, 168.3)">r</text><text class="cls-1" transform="matrix(-0.85, -0.53, 0.53, -0.85, 52.45, 166.58)">o</text><text class="cls-1" transform="translate(46.96 163.12) rotate(-145.12)"> </text><text class="cls-1" transform="translate(44.79 161.7) rotate(-141.5)">D</text><text class="cls-1" transform="translate(38.69 156.77) rotate(-137.54)">r</text><text class="cls-1" transform="translate(35.94 154.31) rotate(-134.12)">o</text><text class="cls-1" transform="translate(31.44 149.7) rotate(-129.66)">p</text><text class="cls-1" transform="matrix(-0.6, -0.8, 0.8, -0.6, 27.19, 144.48)"> </text><text class="cls-1" transform="translate(25.91 142.82) rotate(-123.93)">T</text><text class="cls-1" transform="matrix(-0.5, -0.86, 0.86, -0.5, 23.09, 138.71)">o</text><text class="cls-1" transform="translate(19.86 133.09) rotate(-117.25)"> </text><text class="cls-1" transform="translate(18.61 130.78) rotate(-114.04)">Z</text><text class="cls-1" transform="translate(16.03 124.99) rotate(-109.89)">e</text><text class="cls-1" transform="translate(14.05 119.44) rotate(-106.54)">r</text><text class="cls-1" transform="translate(12.96 115.93) rotate(-103.09)">o</text><text class="cls-1" transform="translate(11.54 109.6) rotate(-100.02)"> </text><text class="cls-1" transform="matrix(-0.11, -0.99, 0.99, -0.11, 11, 107.04)">D</text><text class="cls-1" transform="translate(10.19 99.22) rotate(-92.4)">r</text><text class="cls-1" transform="translate(9.99 95.53) rotate(-89.02)">o</text><text class="cls-1" transform="matrix(0.09, -1, 1, 0.09, 10.09, 89.1)">p</text><text class="cls-1" transform="matrix(0.15, -0.99, 0.99, 0.15, 10.78, 82.44)"> </text><text class="cls-1" transform="matrix(0.19, -0.98, 0.98, 0.19, 11.04, 80.33)">T</text><text class="cls-1" transform="translate(11.97 75.43) rotate(-75.19)">o</text><text class="cls-1" transform="matrix(0.31, -0.95, 0.95, 0.31, 13.67, 69.19)"> </text><text class="cls-1" transform="translate(14.43 66.67) rotate(-68.9)">Z</text><text class="cls-1" transform="matrix(0.43, -0.9, 0.9, 0.43, 16.71, 60.76)">e</text><text class="cls-1" transform="translate(19.24 55.45) rotate(-61.42)">r</text><text class="cls-1" transform="translate(20.97 52.18) rotate(-57.98)">o</text><text class="cls-1" transform="matrix(0.57, -0.82, 0.82, 0.57, 24.45, 46.7)"> </text><text class="cls-1" transform="matrix(0.63, -0.78, 0.78, 0.63, 25.87, 44.53)">D</text><text class="cls-1" transform="matrix(0.68, -0.74, 0.74, 0.68, 30.84, 38.44)">r</text><text class="cls-1" transform="translate(33.29 35.71) rotate(-43.93)">o</text><text class="cls-1" transform="translate(37.93 31.23) rotate(-39.47)">p</text><text class="cls-1" transform="translate(43.16 27) rotate(-36.34)"> </text><text class="cls-1" transform="matrix(0.83, -0.56, 0.56, 0.83, 44.82, 25.72)">T</text><text class="cls-1" transform="translate(48.94 22.91) rotate(-30.12)">o</text><text class="cls-1" transform="translate(54.57 19.7) rotate(-27.06)"> </text><text class="cls-1" transform="matrix(0.91, -0.4, 0.4, 0.91, 56.88, 18.46)">Z</text><text class="cls-1" transform="matrix(0.94, -0.34, 0.34, 0.94, 62.69, 15.9)">e</text><text class="cls-1" transform="translate(68.25 13.94) rotate(-16.34)">r</text><text class="cls-1" transform="translate(71.77 12.85) rotate(-12.89)">o</text><text class="cls-1" transform="matrix(0.99, -0.17, 0.17, 0.99, 78.1, 11.46)"> </text></svg>